<?xml version="1.0" encoding="UTF-8" standalone="no"?>
<!-- Created with Inkscape (http://www.inkscape.org/) -->

<svg
   xmlns:dc="http://purl.org/dc/elements/1.1/"
   xmlns:cc="http://creativecommons.org/ns#"
   xmlns:rdf="http://www.w3.org/1999/02/22-rdf-syntax-ns#"
   xmlns:svg="http://www.w3.org/2000/svg"
   xmlns="http://www.w3.org/2000/svg"
   xmlns:sodipodi="http://sodipodi.sourceforge.net/DTD/sodipodi-0.dtd"
   xmlns:inkscape="http://www.inkscape.org/namespaces/inkscape"
   width="80"
   height="129.44"
   id="svg3016"
   version="1.1"
   inkscape:version="0.48.4 r9939"
   sodipodi:docname="新建文档 3">
  <defs
     id="defs3018" />
  <sodipodi:namedview
     id="base"
     pagecolor="#ffffff"
     bordercolor="#666666"
     borderopacity="1.0"
     inkscape:pageopacity="0.0"
     inkscape:pageshadow="2"
     inkscape:zoom="4.6894313"
     inkscape:cx="40"
     inkscape:cy="64.720001"
     inkscape:document-units="px"
     inkscape:current-layer="layer1"
     showgrid="false"
     inkscape:window-width="1301"
     inkscape:window-height="744"
     inkscape:window-x="65"
     inkscape:window-y="24"
     inkscape:window-maximized="1" />
  <metadata
     id="metadata3021">
    <rdf:RDF>
      <cc:Work
         rdf:about="">
        <dc:format>image/svg+xml</dc:format>
        <dc:type
           rdf:resource="http://purl.org/dc/dcmitype/StillImage" />
        <dc:title></dc:title>
      </cc:Work>
    </rdf:RDF>
  </metadata>
  <g
     inkscape:label="Layer 1"
     inkscape:groupmode="layer"
     id="layer1"
     transform="translate(0,-922.92217)">
    <path
       style="color:#000000;fill:none;stroke:#ed7e2e;stroke-width:6;stroke-linecap:round;stroke-linejoin:round;stroke-miterlimit:4;stroke-opacity:1;stroke-dasharray:none;marker:none;visibility:visible;display:inline;overflow:visible;enable-background:accumulate"
       id="path3026"
       d="m 36.765702,118.03846 c 0.145062,-1.17034 0.195061,-1.48264 0.291068,-2.84271 0.405491,-5.74436 0.426476,-11.51678 0.518428,-17.271703 C 37.692055,84.563636 37.209974,71.208109 36.59757,57.864345 36.048735,46.935067 35.699997,35.997631 35.493287,25.056947 c -0.06242,-4.209133 -0.03675,-2.21616 -0.07936,-5.978888 -0.01024,-0.904666 1.269147,-0.919152 1.27939,-0.01449 l 0,0 c 0.04253,3.756511 0.0169,1.766765 0.07921,5.969207 0.206454,10.929185 0.55488,21.855121 1.103167,32.77291 0.613535,13.370112 1.096325,26.752016 0.978809,40.138803 -0.0925,5.786647 -0.113641,11.590967 -0.523497,17.366857 -0.101548,1.43105 -0.151295,1.72346 -0.307749,2.9629 -0.166731,0.88923 -1.424289,0.65344 -1.257559,-0.23579 z"
       inkscape:connector-curvature="0"
       transform="translate(0,922.92217)" />
    <path
       style="color:#000000;fill:none;stroke:#ed7e2e;stroke-width:6;stroke-linecap:round;stroke-linejoin:round;stroke-miterlimit:4;stroke-opacity:1;stroke-dasharray:none;marker:none;visibility:visible;display:inline;overflow:visible;enable-background:accumulate"
       id="path3040"
       d="m 19.470663,963.02801 c 1.656922,-2.90565 3.396627,-5.76258 5.132611,-8.6214 2.381089,-4.11897 4.698174,-8.27663 6.981535,-12.45076 1.001941,-1.61327 1.68924,-3.47848 3.031356,-4.85601 0.754634,-0.65939 1.539124,-0.69719 2.460768,-0.42728 1.368183,0.53232 2.027516,2.00362 2.725545,3.19078 2.329,4.23938 4.617927,8.50069 6.929735,12.74957 1.74287,3.19838 3.489122,6.39961 4.93821,9.74431 0.269971,0.60851 0.508672,1.22983 0.761683,1.84537 0.343897,0.83681 -0.839539,1.32316 -1.183436,0.48634 l 0,0 c -0.2499,-0.6082 -0.485787,-1.22205 -0.752389,-1.82334 -1.432311,-3.31027 -3.165309,-6.4755 -4.887953,-9.64118 -2.30519,-4.23674 -4.588132,-8.48556 -6.909318,-12.71346 -0.584769,-0.99834 -0.533134,-0.95781 -1.104785,-1.78971 -0.243036,-0.35368 -0.496949,-0.68777 -0.915341,-0.8327 -0.392261,-0.16349 -0.819742,-0.1672 -1.155176,0.1132 -0.621264,0.60731 -1.011154,1.36034 -1.437118,2.11038 -1.004326,1.76843 -0.265675,0.44844 -1.379292,2.45779 -2.292774,4.19093 -4.618821,8.36565 -7.010393,12.50079 -1.740646,2.8665 -3.483709,5.7318 -5.1468,8.64423 -0.485725,0.76328 -1.565166,0.0764 -1.079442,-0.68692 z"
       inkscape:connector-curvature="0" />
  </g>
</svg>
