<?xml version="1.0" encoding="UTF-8" standalone="no"?>
<!-- Created with Inkscape (http://www.inkscape.org/) -->

<svg
   xmlns:dc="http://purl.org/dc/elements/1.1/"
   xmlns:cc="http://creativecommons.org/ns#"
   xmlns:rdf="http://www.w3.org/1999/02/22-rdf-syntax-ns#"
   xmlns:svg="http://www.w3.org/2000/svg"
   xmlns="http://www.w3.org/2000/svg"
   xmlns:xlink="http://www.w3.org/1999/xlink"
   xmlns:sodipodi="http://sodipodi.sourceforge.net/DTD/sodipodi-0.dtd"
   xmlns:inkscape="http://www.inkscape.org/namespaces/inkscape"
   width="320"
   height="480"
   id="svg2"
   version="1.1"
   inkscape:version="0.48.4 r9939"
   sodipodi:docname="tutorial.svg">
  <defs
     id="defs4" />
  <sodipodi:namedview
     id="base"
     pagecolor="#000000"
     bordercolor="#666666"
     borderopacity="1.0"
     inkscape:pageopacity="0"
     inkscape:pageshadow="2"
     inkscape:zoom="1.2645833"
     inkscape:cx="160"
     inkscape:cy="240.00001"
     inkscape:document-units="px"
     inkscape:current-layer="layer1"
     showgrid="false"
     inkscape:window-width="1301"
     inkscape:window-height="744"
     inkscape:window-x="65"
     inkscape:window-y="24"
     inkscape:window-maximized="1" />
  <metadata
     id="metadata7">
    <rdf:RDF>
      <cc:Work
         rdf:about="">
        <dc:format>image/svg+xml</dc:format>
        <dc:type
           rdf:resource="http://purl.org/dc/dcmitype/StillImage" />
        <dc:title />
      </cc:Work>
    </rdf:RDF>
  </metadata>
  <g
     inkscape:label="Layer 1"
     inkscape:groupmode="layer"
     id="layer1"
     transform="translate(0,-572.36218)">
    <g
       id="g3769"
       transform="matrix(0,1,-1,0,1010.7277,596.86143)">
      <g
         id="g3823"
         transform="translate(0,-80.065898)">
        <path
           transform="matrix(0.6692725,0,0,0.6692725,45.934316,658.09227)"
           d="m 168.7719,244.27512 c 0,8.25201 -6.68958,14.94159 -14.94159,14.94159 -8.25202,0 -14.9416,-6.68958 -14.9416,-14.94159 0,-8.25202 6.68958,-14.9416 14.9416,-14.9416 8.25201,0 14.94159,6.68958 14.94159,14.9416 z"
           sodipodi:ry="14.941597"
           sodipodi:rx="14.941597"
           sodipodi:cy="244.27512"
           sodipodi:cx="153.83031"
           id="path3825"
           style="color:#000000;fill:#ff4040;fill-opacity:1;fill-rule:nonzero;stroke:none;stroke-width:6;marker:none;visibility:visible;display:inline;overflow:visible;enable-background:accumulate"
           sodipodi:type="arc" />
        <path
           sodipodi:nodetypes="cc"
           inkscape:connector-curvature="0"
           id="path3827"
           d="m 149.06095,821.63767 0,81.3403"
           style="fill:none;stroke:#ff4040;stroke-width:13.66005039;stroke-linecap:round;stroke-linejoin:round;stroke-miterlimit:4;stroke-opacity:1;stroke-dasharray:none" />
      </g>
      <g
         transform="matrix(0,1,-1,0,1136.0587,672.96353)"
         id="g3811">
        <path
           sodipodi:type="arc"
           style="color:#000000;fill:#ffffff;fill-opacity:1;fill-rule:nonzero;stroke:none;stroke-width:6;marker:none;visibility:visible;display:inline;overflow:visible;enable-background:accumulate"
           id="path3813"
           sodipodi:cx="153.83031"
           sodipodi:cy="244.27512"
           sodipodi:rx="14.941597"
           sodipodi:ry="14.941597"
           d="m 168.7719,244.27512 c 0,8.25201 -6.68958,14.94159 -14.94159,14.94159 -8.25202,0 -14.9416,-6.68958 -14.9416,-14.94159 0,-8.25202 6.68958,-14.9416 14.9416,-14.9416 8.25201,0 14.94159,6.68958 14.94159,14.9416 z"
           transform="matrix(0.6692725,0,0,0.6692725,45.934316,658.09227)" />
        <path
           style="fill:none;stroke:#ffffff;stroke-width:13.66005039;stroke-linecap:round;stroke-linejoin:round;stroke-miterlimit:4;stroke-opacity:1;stroke-dasharray:none"
           d="m 149.06095,821.63767 0,81.3403"
           id="path3815"
           inkscape:connector-curvature="0"
           sodipodi:nodetypes="cc" />
      </g>
      <use
         height="480"
         width="320"
         transform="translate(0,79.868204)"
         id="use3765"
         xlink:href="#g3761"
         y="0"
         x="0" />
      <g
         id="g3780"
         transform="matrix(0,1,-1,0,1055.9928,672.96353)">
        <path
           transform="matrix(0.6692725,0,0,0.6692725,45.934316,658.09227)"
           d="m 168.7719,244.27512 c 0,8.25201 -6.68958,14.94159 -14.94159,14.94159 -8.25202,0 -14.9416,-6.68958 -14.9416,-14.94159 0,-8.25202 6.68958,-14.9416 14.9416,-14.9416 8.25201,0 14.94159,6.68958 14.94159,14.9416 z"
           sodipodi:ry="14.941597"
           sodipodi:rx="14.941597"
           sodipodi:cy="244.27512"
           sodipodi:cx="153.83031"
           id="path3782"
           style="color:#000000;fill:#00ffff;fill-opacity:1;fill-rule:nonzero;stroke:none;stroke-width:6;marker:none;visibility:visible;display:inline;overflow:visible;enable-background:accumulate"
           sodipodi:type="arc" />
        <path
           sodipodi:nodetypes="cc"
           inkscape:connector-curvature="0"
           id="path3784"
           d="m 149.06095,821.63767 0,81.3403"
           style="fill:none;stroke:#00ffff;stroke-width:13.66005039;stroke-linecap:round;stroke-linejoin:round;stroke-miterlimit:4;stroke-opacity:1;stroke-dasharray:none" />
      </g>
      <g
         id="g3761">
        <path
           sodipodi:type="arc"
           style="color:#000000;fill:#0080ff;fill-opacity:1;fill-rule:nonzero;stroke:none;stroke-width:6;marker:none;visibility:visible;display:inline;overflow:visible;enable-background:accumulate"
           id="path2989"
           sodipodi:cx="153.83031"
           sodipodi:cy="244.27512"
           sodipodi:rx="14.941597"
           sodipodi:ry="14.941597"
           d="m 168.7719,244.27512 c 0,8.25201 -6.68958,14.94159 -14.94159,14.94159 -8.25202,0 -14.9416,-6.68958 -14.9416,-14.94159 0,-8.25202 6.68958,-14.9416 14.9416,-14.9416 8.25201,0 14.94159,6.68958 14.94159,14.9416 z"
           transform="matrix(0.6692725,0,0,0.6692725,45.934316,658.09227)" />
        <path
           style="fill:none;stroke:#0080ff;stroke-width:13.66005039;stroke-linecap:round;stroke-linejoin:round;stroke-miterlimit:4;stroke-opacity:1;stroke-dasharray:none"
           d="m 149.06095,821.63767 0,81.3403"
           id="path3759"
           inkscape:connector-curvature="0"
           sodipodi:nodetypes="cc" />
        <path
           transform="matrix(0.47280088,0,0,0.47280088,76.017816,706.22519)"
           d="m 168.7719,244.27512 c 0,8.25201 -6.68958,14.94159 -14.94159,14.94159 -8.25202,0 -14.9416,-6.68958 -14.9416,-14.94159 0,-8.25202 6.68958,-14.9416 14.9416,-14.9416 8.25201,0 14.94159,6.68958 14.94159,14.9416 z"
           sodipodi:ry="14.941597"
           sodipodi:rx="14.941597"
           sodipodi:cy="244.27512"
           sodipodi:cx="153.83031"
           id="path3855"
           style="color:#000000;fill:#000080;fill-opacity:1;fill-rule:nonzero;stroke:none;stroke-width:6;marker:none;visibility:visible;display:inline;overflow:visible;enable-background:accumulate"
           sodipodi:type="arc" />
      </g>
      <use
         x="0"
         y="0"
         xlink:href="#g3811"
         id="use3857"
         transform="translate(80.658979,0)"
         width="320"
         height="480" />
      <use
         x="0"
         y="0"
         xlink:href="#use3857"
         id="use3859"
         inkscape:transform-center-y="1.0243223e-05"
         width="320"
         height="480"
         transform="matrix(0,1,-1,0,1217.2974,426.40709)"
         inkscape:transform-center-x="-39.420913" />
      <path
         style="color:#000000;fill:#ffffff;fill-opacity:1;fill-rule:nonzero;stroke:#ffffff;stroke-width:3;stroke-linecap:round;stroke-linejoin:round;stroke-miterlimit:4;stroke-opacity:1;stroke-dasharray:none;marker:none;visibility:visible;display:inline;overflow:visible;enable-background:accumulate"
         id="path3877"
         d="m 189.75076,176.41019 c -5.97954,9.37964 -11.33095,19.13546 -16.81954,28.80513 -12.65793,22.62867 -24.94033,45.47315 -36.48885,68.68838 -9.91101,19.84792 -18.8751,40.1395 -27.6037,60.52786 -2.56719,5.67488 -4.9792,11.41587 -7.36047,17.17025 -0.21381,0.51667 -0.94449,0.2143 -0.73069,-0.30237 l 0,0 c 2.38251,-5.75734 4.79574,-11.50129 7.3642,-17.1791 8.73454,-20.4022 17.70494,-40.70745 27.62266,-60.56885 11.55522,-23.22798 23.84389,-46.08543 36.50914,-68.72653 5.48896,-9.6703 10.84025,-19.42712 16.82067,-28.8071 0.27742,-0.48549 0.96401,-0.0932 0.68658,0.39233 z"
         inkscape:connector-curvature="0"
         transform="matrix(0,-1,1,0,-24.49925,1010.7277)" />
      <g
         id="g3925"
         transform="translate(-26.560189,-30.474322)">
        <path
           transform="matrix(0,-1,1,0,-24.49925,1010.7277)"
           inkscape:connector-curvature="0"
           d="m 31.383023,376.61011 c 1.028182,1.51126 1.934887,3.10338 2.78704,4.71947 1.046538,1.67744 1.90177,3.45208 2.87759,5.17122 0.480656,0.84669 0.929201,2.66094 2.169067,1.94703 2.886345,-1.60981 5.756963,-3.24839 8.624499,-4.89281 1.940821,-1.15088 1.026492,-0.56592 2.751543,-1.74144 0.462237,-0.31465 0.907207,0.33906 0.444971,0.6537 l 0,0 c -1.770206,1.20368 -0.838216,0.60868 -2.803134,1.77372 -2.897083,1.66131 -5.79517,3.32122 -8.716506,4.93792 -0.271401,0.0908 -0.529084,0.24772 -0.814205,0.27235 -1.264658,0.10924 -1.891732,-1.72032 -2.343978,-2.56017 -0.979663,-1.72661 -1.838706,-3.50804 -2.88938,-5.19277 -0.854602,-1.62168 -1.769552,-3.21405 -2.794797,-4.73458 -0.250065,-0.50013 0.457225,-0.85377 0.70729,-0.35364 z"
           id="path3879"
           style="color:#000000;fill:#ffffff;fill-opacity:1;fill-rule:nonzero;stroke:#ffffff;stroke-width:3;stroke-linecap:round;stroke-linejoin:round;stroke-miterlimit:4;stroke-opacity:1;stroke-dasharray:none;marker:none;visibility:visible;display:inline;overflow:visible;enable-background:accumulate" />
        <path
           transform="matrix(0,-1,1,0,-24.49925,1010.7277)"
           inkscape:connector-curvature="0"
           d="m 39.716642,390.47152 c -0.712752,2.18035 -0.985499,4.46971 -1.187712,6.74469 -0.225469,1.93902 -0.04112,3.90621 -0.284741,5.83936 -0.177309,0.94856 -0.08814,0.48108 -0.267218,1.40249 -0.106683,0.54889 -0.882931,0.39801 -0.776248,-0.15088 l 0,0 c 0.175283,-0.90179 0.08887,-0.45074 0.259237,-1.35314 0.25601,-1.91964 0.03987,-3.88192 0.281311,-5.80796 0.20965,-2.35128 0.494481,-4.71765 1.241156,-6.96824 0.207667,-0.51917 0.941883,-0.22548 0.734215,0.29368 z"
           id="path3881"
           style="color:#000000;fill:#ffffff;fill-opacity:1;fill-rule:nonzero;stroke:#ffffff;stroke-width:3;stroke-linecap:round;stroke-linejoin:round;stroke-miterlimit:4;stroke-opacity:1;stroke-dasharray:none;marker:none;visibility:visible;display:inline;overflow:visible;enable-background:accumulate" />
        <path
           transform="matrix(0,-1,1,0,-24.49925,1010.7277)"
           inkscape:connector-curvature="0"
           d="m 63.748448,386.02101 c -0.723175,-0.15617 -1.46131,-0.0619 -2.185147,0.0335 -1.200072,0.25248 -2.363209,0.70169 -3.412574,1.3393 -0.24559,0.14923 -0.47907,0.31753 -0.718606,0.47629 -1.356169,0.98584 -2.41467,2.30364 -3.251239,3.74763 -0.198577,0.34276 -0.372019,0.69949 -0.558029,1.04923 -0.163829,0.38207 -0.34536,0.75703 -0.491487,1.14622 -0.664949,1.771 -1.019139,3.69112 -1.077519,5.58037 -0.01593,0.51549 0.01521,1.03135 0.02282,1.54702 0.121753,1.01534 0.184898,2.05362 0.545048,3.02598 0.360162,0.9724 0.992548,1.94057 1.692919,2.69992 0.895042,0.9704 1.27444,1.10877 2.363928,1.78795 0.982388,0.40051 1.369813,0.64771 2.425687,0.7437 1.114243,0.1013 2.345541,-0.1485 3.383611,-0.5454 0.308694,-0.11803 0.59993,-0.27745 0.899894,-0.41617 0.265533,-0.16513 0.542989,-0.31248 0.796599,-0.4954 1.042021,-0.75157 1.834691,-1.82382 2.39679,-2.9688 0.165206,-0.33652 0.29552,-0.68907 0.44328,-1.03361 0.126868,-0.38722 0.269963,-0.7695 0.380604,-1.16167 0.500679,-1.77467 0.745414,-3.65606 0.688696,-5.50022 -0.01584,-0.51495 -0.08033,-1.02724 -0.120497,-1.54086 -0.268168,-2.20455 -0.964193,-4.32439 -1.9845,-6.29397 -0.596463,-1.1514 -0.918403,-1.56564 -1.629595,-2.61909 -0.0391,-0.0579 0.04283,-0.11323 0.08193,-0.0553 l 0,0 c 0.715059,1.05957 1.037567,1.47445 1.637293,2.63271 1.025349,1.98026 1.724278,4.11166 1.993419,6.32795 0.04026,0.51681 0.104949,1.03229 0.120779,1.55042 0.05664,1.8539 -0.189736,3.74526 -0.693596,5.52915 -0.111552,0.39494 -0.255799,0.77991 -0.383698,1.16987 -0.149313,0.34768 -0.281,0.70347 -0.447939,1.04304 -0.570197,1.15984 -1.374459,2.2438 -2.430798,3.00434 -0.257051,0.18507 -0.538209,0.33412 -0.807314,0.50118 -0.303966,0.14026 -0.599115,0.30147 -0.911897,0.42078 -1.054718,0.40234 -2.301202,0.65253 -3.432731,0.54792 -1.070654,-0.099 -1.462931,-0.34965 -2.458352,-0.75672 -1.101792,-0.68844 -1.485389,-0.82871 -2.390039,-1.81166 -0.71117,-0.77273 -1.345159,-1.74826 -1.710546,-2.73681 -0.362329,-0.98027 -0.425447,-2.02434 -0.547811,-3.04778 -0.0075,-0.51872 -0.03867,-1.03763 -0.02253,-1.55615 0.05912,-1.90004 0.415972,-3.83074 1.085223,-5.61165 0.147208,-0.39173 0.330043,-0.76913 0.495064,-1.15369 0.18724,-0.35186 0.361841,-0.71074 0.56172,-1.05558 0.8439,-1.45592 1.912327,-2.78373 3.28022,-3.77725 0.241787,-0.16013 0.477467,-0.32989 0.725361,-0.48039 1.060145,-0.64363 2.235111,-1.09695 3.447512,-1.35081 0.736176,-0.0968 1.486792,-0.19139 2.222022,-0.0314 0.06781,0.017 0.04383,0.11285 -0.02397,0.0959 z"
           id="path3905"
           style="color:#000000;fill:#ffffff;fill-opacity:1;fill-rule:nonzero;stroke:#ffffff;stroke-width:3;stroke-linecap:round;stroke-linejoin:round;stroke-miterlimit:4;stroke-opacity:1;stroke-dasharray:none;marker:none;visibility:visible;display:inline;overflow:visible;enable-background:accumulate" />
        <path
           inkscape:connector-curvature="0"
           d="m 365.70978,933.70315 c 1.92713,-0.006 3.82832,0.4035 5.71051,0.77335 2.96932,0.64923 5.95006,1.23392 8.98233,1.47857 1.15173,-4e-4 2.42315,0.1181 3.49517,-0.41001 0.45764,-0.22544 0.59203,-0.4112 0.95386,-0.76151 1.11753,-1.30767 1.69593,-2.95322 2.13922,-4.58962 0.53948,-2.29096 -0.18502,-3.19607 -1.77907,-4.74627 -2.47154,-2.06556 -5.53023,-3.11742 -8.59051,-3.95703 -2.49352,-0.65192 -5.05017,-0.98938 -7.61722,-1.16017 -0.86946,-0.0504 -1.74028,-0.0634 -2.61096,-0.0673 -0.19769,-8.9e-4 -0.19643,-0.28047 0.001,-0.27958 l 0,0 c 0.87645,0.004 1.75305,0.0171 2.62827,0.0679 2.58577,0.17228 5.16103,0.51248 7.67266,1.16953 3.10574,0.85314 6.20746,1.92445 8.71166,4.02644 0.28643,0.27986 0.5922,0.54122 0.85929,0.83959 1.13058,1.263 1.41369,2.55234 0.99446,4.18006 -0.45761,1.68507 -1.05722,3.37697 -2.21545,4.71813 -0.40517,0.38589 -0.54028,0.57531 -1.05134,0.82236 -1.11314,0.53807 -2.4194,0.43156 -3.61382,0.42614 -3.04273,-0.24629 -6.03417,-0.83065 -9.01372,-1.48291 -1.86439,-0.3665 -3.74768,-0.77319 -5.6566,-0.7681 -0.19769,0 -0.19769,-0.27958 0,-0.27958 z"
           id="path3923"
           style="color:#000000;fill:#ffffff;fill-opacity:1;fill-rule:nonzero;stroke:#ffffff;stroke-width:3;stroke-linecap:round;stroke-linejoin:round;stroke-miterlimit:4;stroke-opacity:1;stroke-dasharray:none;marker:none;visibility:visible;display:inline;overflow:visible;enable-background:accumulate" />
      </g>
    </g>
    <g
       transform="matrix(0,1,-1,0,1238.2024,730.18743)"
       id="layer1-5"
       inkscape:label="Layer 1">
      <path
         sodipodi:nodetypes="cc"
         inkscape:connector-curvature="0"
         id="path2985"
         d="m 15.356169,1048.6006 0,-32.7405"
         style="fill:none;stroke:#0080ff;stroke-width:4;stroke-linecap:round;stroke-linejoin:round;stroke-miterlimit:4;stroke-opacity:1;stroke-dasharray:none" />
      <path
         sodipodi:nodetypes="cc"
         inkscape:connector-curvature="0"
         id="path2987"
         d="m 3.8275355,1026.664 11.4627155,-11.4627 11.561354,11.5614"
         style="fill:none;stroke:#0080ff;stroke-width:4;stroke-linecap:round;stroke-linejoin:round;stroke-miterlimit:4;stroke-opacity:1;stroke-dasharray:none" />
    </g>
    <g
       inkscape:label="Layer 1"
       id="g3817"
       transform="matrix(-1,0,0,-1,203.82042,1881.8102)">
      <path
         style="fill:none;stroke:#00ffff;stroke-width:4;stroke-linecap:round;stroke-linejoin:round;stroke-miterlimit:4;stroke-opacity:1;stroke-dasharray:none"
         d="m 15.356169,1048.6006 0,-32.7405"
         id="path3819"
         inkscape:connector-curvature="0"
         sodipodi:nodetypes="cc" />
      <path
         style="fill:none;stroke:#00ffff;stroke-width:4;stroke-linecap:round;stroke-linejoin:round;stroke-miterlimit:4;stroke-opacity:1;stroke-dasharray:none"
         d="m 3.8275355,1026.664 11.4627155,-11.4627 11.561354,11.5614"
         id="path3821"
         inkscape:connector-curvature="0"
         sodipodi:nodetypes="cc" />
    </g>
    <g
       inkscape:label="Layer 1"
       id="g3829"
       transform="matrix(0,1,-1,0,1318.2402,730.18743)">
      <path
         style="fill:none;stroke:#ff4040;stroke-width:4;stroke-linecap:round;stroke-linejoin:round;stroke-miterlimit:4;stroke-opacity:1;stroke-dasharray:none"
         d="m 15.356169,1048.6006 0,-32.7405"
         id="path3831"
         inkscape:connector-curvature="0"
         sodipodi:nodetypes="cc" />
      <path
         style="fill:none;stroke:#ff4040;stroke-width:4;stroke-linecap:round;stroke-linejoin:round;stroke-miterlimit:4;stroke-opacity:1;stroke-dasharray:none"
         d="m 3.8275355,1026.664 11.4627155,-11.4627 11.561354,11.5614"
         id="path3833"
         inkscape:connector-curvature="0"
         sodipodi:nodetypes="cc" />
    </g>
    <g
       transform="matrix(0,-0.5002248,-0.5002248,0,665.60639,795.26092)"
       id="layer1-9"
       inkscape:label="Layer 1">
      <path
         sodipodi:nodetypes="czc"
         transform="translate(0,922.92217)"
         inkscape:connector-curvature="0"
         id="path3766"
         d="m 63.130148,123.77279 c 0,0 6.276548,-41.805025 -4.57748,-53.011005 C 47.69864,59.555805 13.970346,64.069327 13.970346,64.069327"
         style="fill:none;stroke:#edc22e;stroke-width:6;stroke-linecap:round;stroke-linejoin:round;stroke-miterlimit:4;stroke-opacity:1;stroke-dasharray:none" />
      <path
         sodipodi:nodetypes="ccc"
         inkscape:connector-curvature="0"
         id="path3768"
         d="m 22.537067,978.29298 -10.74135,8.50082 10.411861,9.2257"
         style="fill:none;stroke:#edc22e;stroke-width:6;stroke-linecap:round;stroke-linejoin:round;stroke-miterlimit:4;stroke-opacity:1;stroke-dasharray:none" />
    </g>
    <g
       transform="matrix(0,0.49912635,-0.49912635,0,697.76953,703.36201)"
       id="layer1-8"
       inkscape:label="Layer 1">
      <path
         sodipodi:nodetypes="ccc"
         inkscape:connector-curvature="0"
         id="path2992"
         d="m 40.729885,1039.7807 0,-10.449 0,-91.05586"
         style="fill:none;stroke:#ed7e2e;stroke-width:8;stroke-linecap:round;stroke-linejoin:round;stroke-miterlimit:4;stroke-opacity:1;stroke-dasharray:none" />
      <path
         inkscape:connector-curvature="0"
         id="path2996"
         d="m 25.162966,951.71031 15.566919,-15.56692 14.927183,14.92718"
         style="fill:none;stroke:#ed7e2e;stroke-width:8;stroke-linecap:round;stroke-linejoin:round;stroke-miterlimit:4;stroke-opacity:1;stroke-dasharray:none" />
    </g>
    <path
       style="color:#000000;fill:#ffffff;fill-opacity:1;fill-rule:nonzero;stroke:#00a7ff;stroke-width:5;stroke-linecap:round;stroke-linejoin:round;stroke-miterlimit:4;stroke-opacity:1;stroke-dasharray:none;marker:none;visibility:visible;display:inline;overflow:visible;enable-background:accumulate"
       id="path3788"
       d="m 207.73916,864.484 c 0.82309,1.13018 1.25577,2.48116 2.06746,3.61519 0.12672,0.17704 1.16535,1.39949 1.31816,1.5803 1.25491,1.29624 2.91612,2.14512 4.59158,2.76853 0.2957,0.0222 0.59351,0.10824 0.88712,0.0666 2.5454,-0.36076 6.00022,-5.08329 7.46373,-6.82939 0.7721,-0.96599 1.55832,-1.92085 2.3163,-2.89796 3.45229,-4.45034 1.35378,-1.99674 4.98352,-6.37919 2.26324,-2.73258 4.63512,-5.36511 7.02492,-7.98624 2.3399,-2.3836 1.19208,-1.28864 3.42297,-3.30623 0.41484,-0.37493 0.94507,0.21175 0.53023,0.58667 l 0,0 c -2.19003,1.97797 -1.05995,0.9013 -3.36885,3.25234 -2.3793,2.60948 -4.74079,5.23028 -6.99428,7.95055 -3.6086,4.3561 -1.52712,1.92427 -4.98082,6.37584 -0.76182,0.98193 -1.552,1.94151 -2.328,2.91226 -1.80185,2.14868 -4.99323,6.78015 -8.14144,7.10887 -0.3643,0.038 -0.72862,-0.0758 -1.09294,-0.11368 -1.80006,-0.6792 -3.57851,-1.58989 -4.91805,-2.9986 -0.24077,-0.28496 -1.19605,-1.40579 -1.38575,-1.67323 -0.83313,-1.17458 -1.29561,-2.56205 -2.13008,-3.73898 -0.20767,-0.51917 0.52655,-0.81285 0.73422,-0.29368 z"
       inkscape:connector-curvature="0" />
    <path
       style="color:#000000;fill:#ffffff;fill-opacity:1;fill-rule:nonzero;stroke:#bd4040;stroke-width:5;stroke-linecap:round;stroke-linejoin:round;stroke-miterlimit:4;stroke-opacity:1;stroke-dasharray:none;marker:none;visibility:visible;display:inline;overflow:visible;enable-background:accumulate"
       id="path3790"
       d="m 272.08164,194.41607 c -3.58711,5.71904 -6.32187,11.90432 -9.27739,17.95812 -2.3085,4.82468 -4.68465,9.61652 -7.16397,14.35557 -0.25922,0.49545 -0.95989,0.12887 -0.70067,-0.36658 l 0,0 c 2.47608,-4.73246 4.84859,-9.51793 7.15403,-14.33592 2.96555,-6.07421 5.71058,-12.27977 9.30991,-18.01804 0.28769,-0.47948 0.96577,-0.0726 0.67809,0.40685 z"
       inkscape:connector-curvature="0"
       transform="translate(0,572.36218)" />
    <path
       style="color:#000000;fill:#ffffff;fill-opacity:1;fill-rule:nonzero;stroke:#bd4040;stroke-width:5;stroke-linecap:round;stroke-linejoin:round;stroke-miterlimit:4;stroke-opacity:1;stroke-dasharray:none;marker:none;visibility:visible;display:inline;overflow:visible;enable-background:accumulate"
       id="path3796"
       d="m 256.10721,197.91952 c 2.69849,3.10555 5.51191,6.10329 8.1275,9.2812 2.75812,3.15541 5.26163,6.51594 7.83298,9.82122 1.28644,1.48072 2.55249,2.97841 3.66317,4.59623 0.62216,1.06006 1.26813,2.10381 1.88315,3.16813 0.2797,0.48419 -0.40504,0.87974 -0.68473,0.39556 l 0,0 c -0.60456,-1.04686 -1.24094,-2.07266 -1.85058,-3.11646 -1.10006,-1.60594 -2.36188,-3.08698 -3.63518,-4.55793 -2.56664,-3.29979 -5.06615,-6.65427 -7.81944,-9.80429 -2.61715,-3.18134 -5.43616,-6.17904 -8.13436,-9.28966 -0.3493,-0.43664 0.26819,-0.93063 0.61749,-0.494 z"
       inkscape:connector-curvature="0"
       transform="translate(0,572.36218)" />
  </g>
</svg>
