<?xml version="1.0" encoding="UTF-8" standalone="no"?>
<!-- Created with Inkscape (http://www.inkscape.org/) -->

<svg
   xmlns:dc="http://purl.org/dc/elements/1.1/"
   xmlns:cc="http://creativecommons.org/ns#"
   xmlns:rdf="http://www.w3.org/1999/02/22-rdf-syntax-ns#"
   xmlns:svg="http://www.w3.org/2000/svg"
   xmlns="http://www.w3.org/2000/svg"
   xmlns:xlink="http://www.w3.org/1999/xlink"
   xmlns:sodipodi="http://sodipodi.sourceforge.net/DTD/sodipodi-0.dtd"
   xmlns:inkscape="http://www.inkscape.org/namespaces/inkscape"
   width="320"
   height="480"
   id="svg2"
   version="1.1"
   inkscape:version="0.48.4 r9939"
   sodipodi:docname="tutorial.svg">
  <defs
     id="defs4" />
  <sodipodi:namedview
     id="base"
     pagecolor="#000000"
     bordercolor="#666666"
     borderopacity="1.0"
     inkscape:pageopacity="0"
     inkscape:pageshadow="2"
     inkscape:zoom="1.2645833"
     inkscape:cx="160"
     inkscape:cy="240.00001"
     inkscape:document-units="px"
     inkscape:current-layer="layer1"
     showgrid="false"
     inkscape:window-width="1301"
     inkscape:window-height="744"
     inkscape:window-x="65"
     inkscape:window-y="24"
     inkscape:window-maximized="1" />
  <metadata
     id="metadata7">
    <rdf:RDF>
      <cc:Work
         rdf:about="">
        <dc:format>image/svg+xml</dc:format>
        <dc:type
           rdf:resource="http://purl.org/dc/dcmitype/StillImage" />
        <dc:title />
      </cc:Work>
    </rdf:RDF>
  </metadata>
  <g
     inkscape:label="Layer 1"
     inkscape:groupmode="layer"
     id="layer1"
     transform="translate(0,-572.36218)">
    <g
       id="g3769"
       transform="matrix(0,1,-1,0,1010.7277,596.86143)">
      <g
         id="g3823"
         transform="translate(0,-80.065898)">
        <path
           transform="matrix(0.6692725,0,0,0.6692725,45.934316,658.09227)"
           d="m 168.7719,244.27512 c 0,8.25201 -6.68958,14.94159 -14.94159,14.94159 -8.25202,0 -14.9416,-6.68958 -14.9416,-14.94159 0,-8.25202 6.68958,-14.9416 14.9416,-14.9416 8.25201,0 14.94159,6.68958 14.94159,14.9416 z"
           sodipodi:ry="14.941597"
           sodipodi:rx="14.941597"
           sodipodi:cy="244.27512"
           sodipodi:cx="153.83031"
           id="path3825"
           style="color:#000000;fill:#ff4040;fill-opacity:1;fill-rule:nonzero;stroke:none;stroke-width:6;marker:none;visibility:visible;display:inline;overflow:visible;enable-background:accumulate"
           sodipodi:type="arc" />
        <path
           sodipodi:nodetypes="cc"
           inkscape:connector-curvature="0"
           id="path3827"
           d="m 149.06095,821.63767 0,81.3403"
           style="fill:none;stroke:#ff4040;stroke-width:13.66005039;stroke-linecap:round;stroke-linejoin:round;stroke-miterlimit:4;stroke-opacity:1;stroke-dasharray:none" />
      </g>
      <g
         transform="matrix(0,1,-1,0,1136.0587,672.96353)"
         id="g3811">
        <path
           sodipodi:type="arc"
           style="color:#000000;fill:#ffffff;fill-opacity:1;fill-rule:nonzero;stroke:none;stroke-width:6;marker:none;visibility:visible;display:inline;overflow:visible;enable-background:accumulate"
           id="path3813"
           sodipodi:cx="153.83031"
           sodipodi:cy="244.27512"
           sodipodi:rx="14.941597"
           sodipodi:ry="14.941597"
           d="m 168.7719,244.27512 c 0,8.25201 -6.68958,14.94159 -14.94159,14.94159 -8.25202,0 -14.9416,-6.68958 -14.9416,-14.94159 0,-8.25202 6.68958,-14.9416 14.9416,-14.9416 8.25201,0 14.94159,6.68958 14.94159,14.9416 z"
           transform="matrix(0.6692725,0,0,0.6692725,45.934316,658.09227)" />
        <path
           style="fill:none;stroke:#ffffff;stroke-width:13.66005039;stroke-linecap:round;stroke-linejoin:round;stroke-miterlimit:4;stroke-opacity:1;stroke-dasharray:none"
           d="m 149.06095,821.63767 0,81.3403"
           id="path3815"
           inkscape:connector-curvature="0"
           sodipodi:nodetypes="cc" />
      </g>
      <use
         height="480"
         width="320"
         transform="translate(0,79.868204)"
         id="use3765"
         xlink:href="#g3761"
         y="0"
         x="0" />
      <g
         id="g3780"
         transform="matrix(0,1,-1,0,1055.9928,672.96353)">
        <path
           transform="matrix(0.6692725,0,0,0.6692725,45.934316,658.09227)"
           d="m 168.7719,244.27512 c 0,8.25201 -6.68958,14.94159 -14.94159,14.94159 -8.25202,0 -14.9416,-6.68958 -14.9416,-14.94159 0,-8.25202 6.68958,-14.9416 14.9416,-14.9416 8.25201,0 14.94159,6.68958 14.94159,14.9416 z"
           sodipodi:ry="14.941597"
           sodipodi:rx="14.941597"
           sodipodi:cy="244.27512"
           sodipodi:cx="153.83031"
           id="path3782"
           style="color:#000000;fill:#00ffff;fill-opacity:1;fill-rule:nonzero;stroke:none;stroke-width:6;marker:none;visibility:visible;display:inline;overflow:visible;enable-background:accumulate"
           sodipodi:type="arc" />
        <path
           sodipodi:nodetypes="cc"
           inkscape:connector-curvature="0"
           id="path3784"
           d="m 149.06095,821.63767 0,81.3403"
           style="fill:none;stroke:#00ffff;stroke-width:13.66005039;stroke-linecap:round;stroke-linejoin:round;stroke-miterlimit:4;stroke-opacity:1;stroke-dasharray:none" />
      </g>
      <g
         id="g3761">
        <path
           sodipodi:type="arc"
           style="color:#000000;fill:#0080ff;fill-opacity:1;fill-rule:nonzero;stroke:none;stroke-width:6;marker:none;visibility:visible;display:inline;overflow:visible;enable-background:accumulate"
           id="path2989"
           sodipodi:cx="153.83031"
           sodipodi:cy="244.27512"
           sodipodi:rx="14.941597"
           sodipodi:ry="14.941597"
           d="m 168.7719,244.27512 c 0,8.25201 -6.68958,14.94159 -14.94159,14.94159 -8.25202,0 -14.9416,-6.68958 -14.9416,-14.94159 0,-8.25202 6.68958,-14.9416 14.9416,-14.9416 8.25201,0 14.94159,6.68958 14.94159,14.9416 z"
           transform="matrix(0.6692725,0,0,0.6692725,45.934316,658.09227)" />
        <path
           style="fill:none;stroke:#0080ff;stroke-width:13.66005039;stroke-linecap:round;stroke-linejoin:round;stroke-miterlimit:4;stroke-opacity:1;stroke-dasharray:none"
           d="m 149.06095,821.63767 0,81.3403"
           id="path3759"
           inkscape:connector-curvature="0"
           sodipodi:nodetypes="cc" />
        <path
           transform="matrix(0.47280088,0,0,0.47280088,76.017816,706.22519)"
           d="m 168.7719,244.27512 c 0,8.25201 -6.68958,14.94159 -14.94159,14.94159 -8.25202,0 -14.9416,-6.68958 -14.9416,-14.94159 0,-8.25202 6.68958,-14.9416 14.9416,-14.9416 8.25201,0 14.94159,6.68958 14.94159,14.9416 z"
           sodipodi:ry="14.941597"
           sodipodi:rx="14.941597"
           sodipodi:cy="244.27512"
           sodipodi:cx="153.83031"
           id="path3855"
           style="color:#000000;fill:#000080;fill-opacity:1;fill-rule:nonzero;stroke:none;stroke-width:6;marker:none;visibility:visible;display:inline;overflow:visible;enable-background:accumulate"
           sodipodi:type="arc" />
      </g>
      <use
         x="0"
         y="0"
         xlink:href="#g3811"
         id="use3857"
         transform="translate(80.658979,0)"
         width="320"
         height="480" />
      <use
         x="0"
         y="0"
         xlink:href="#use3857"
         id="use3859"
         inkscape:transform-center-y="1.0243223e-05"
         width="320"
         height="480"
         transform="matrix(0,1,-1,0,1217.2974,426.40709)"
         inkscape:transform-center-x="-39.420913" />
      <path
         style="color:#000000;fill:#ffffff;fill-opacity:1;fill-rule:nonzero;stroke:#ffffff;stroke-width:3;stroke-linecap:round;stroke-linejoin:round;stroke-miterlimit:4;stroke-opacity:1;stroke-dasharray:none;marker:none;visibility:visible;display:inline;overflow:visible;enable-background:accumulate"
         id="path3877"
         d="m 189.75076,176.41019 c -5.97954,9.37964 -11.33095,19.13546 -16.81954,28.80513 -12.65793,22.62867 -24.94033,45.47315 -36.48885,68.68838 -9.91101,19.84792 -18.8751,40.1395 -27.6037,60.52786 -2.56719,5.67488 -4.9792,11.41587 -7.36047,17.17025 -0.21381,0.51667 -0.94449,0.2143 -0.73069,-0.30237 l 0,0 c 2.38251,-5.75734 4.79574,-11.50129 7.3642,-17.1791 8.73454,-20.4022 17.70494,-40.70745 27.62266,-60.56885 11.55522,-23.22798 23.84389,-46.08543 36.50914,-68.72653 5.48896,-9.6703 10.84025,-19.42712 16.82067,-28.8071 0.27742,-0.48549 0.96401,-0.0932 0.68658,0.39233 z"
         inkscape:connector-curvature="0"
         transform="matrix(0,-1,1,0,-24.49925,1010.7277)" />
    </g>
    <g
       transform="matrix(0,-0.5002248,-0.5002248,0,665.60639,795.26092)"
       id="layer1-9"
       inkscape:label="Layer 1">
      <path
         sodipodi:nodetypes="czc"
         transform="translate(0,922.92217)"
         inkscape:connector-curvature="0"
         id="path3766"
         d="m 63.130148,123.77279 c 0,0 6.276548,-41.805025 -4.57748,-53.011005 C 47.69864,59.555805 13.970346,64.069327 13.970346,64.069327"
         style="fill:none;stroke:#edc22e;stroke-width:6;stroke-linecap:round;stroke-linejoin:round;stroke-miterlimit:4;stroke-opacity:1;stroke-dasharray:none" />
      <path
         sodipodi:nodetypes="ccc"
         inkscape:connector-curvature="0"
         id="path3768"
         d="m 22.537067,978.29298 -10.74135,8.50082 10.411861,9.2257"
         style="fill:none;stroke:#edc22e;stroke-width:6;stroke-linecap:round;stroke-linejoin:round;stroke-miterlimit:4;stroke-opacity:1;stroke-dasharray:none" />
    </g>
    <g
       transform="matrix(0,0.49912635,-0.49912635,0,697.76953,703.36201)"
       id="layer1-8"
       inkscape:label="Layer 1">
      <path
         sodipodi:nodetypes="ccc"
         inkscape:connector-curvature="0"
         id="path2992"
         d="m 40.729885,1039.7807 0,-10.449 0,-91.05586"
         style="fill:none;stroke:#ed7e2e;stroke-width:8;stroke-linecap:round;stroke-linejoin:round;stroke-miterlimit:4;stroke-opacity:1;stroke-dasharray:none" />
      <path
         inkscape:connector-curvature="0"
         id="path2996"
         d="m 25.162966,951.71031 15.566919,-15.56692 14.927183,14.92718"
         style="fill:none;stroke:#ed7e2e;stroke-width:8;stroke-linecap:round;stroke-linejoin:round;stroke-miterlimit:4;stroke-opacity:1;stroke-dasharray:none" />
    </g>
    <path
       style="color:#000000;fill:#ffffff;fill-opacity:1;fill-rule:nonzero;stroke:#00a7ff;stroke-width:5;stroke-linecap:round;stroke-linejoin:round;stroke-miterlimit:4;stroke-opacity:1;stroke-dasharray:none;marker:none;visibility:visible;display:inline;overflow:visible;enable-background:accumulate"
       id="path3788"
       d="m 207.73916,864.484 c 0.82309,1.13018 1.25577,2.48116 2.06746,3.61519 0.12672,0.17704 1.16535,1.39949 1.31816,1.5803 1.25491,1.29624 2.91612,2.14512 4.59158,2.76853 0.2957,0.0222 0.59351,0.10824 0.88712,0.0666 2.5454,-0.36076 6.00022,-5.08329 7.46373,-6.82939 0.7721,-0.96599 1.55832,-1.92085 2.3163,-2.89796 3.45229,-4.45034 1.35378,-1.99674 4.98352,-6.37919 2.26324,-2.73258 4.63512,-5.36511 7.02492,-7.98624 2.3399,-2.3836 1.19208,-1.28864 3.42297,-3.30623 0.41484,-0.37493 0.94507,0.21175 0.53023,0.58667 l 0,0 c -2.19003,1.97797 -1.05995,0.9013 -3.36885,3.25234 -2.3793,2.60948 -4.74079,5.23028 -6.99428,7.95055 -3.6086,4.3561 -1.52712,1.92427 -4.98082,6.37584 -0.76182,0.98193 -1.552,1.94151 -2.328,2.91226 -1.80185,2.14868 -4.99323,6.78015 -8.14144,7.10887 -0.3643,0.038 -0.72862,-0.0758 -1.09294,-0.11368 -1.80006,-0.6792 -3.57851,-1.58989 -4.91805,-2.9986 -0.24077,-0.28496 -1.19605,-1.40579 -1.38575,-1.67323 -0.83313,-1.17458 -1.29561,-2.56205 -2.13008,-3.73898 -0.20767,-0.51917 0.52655,-0.81285 0.73422,-0.29368 z"
       inkscape:connector-curvature="0" />
    <path
       style="color:#000000;fill:#ffffff;fill-opacity:1;fill-rule:nonzero;stroke:#bd4040;stroke-width:5;stroke-linecap:round;stroke-linejoin:round;stroke-miterlimit:4;stroke-opacity:1;stroke-dasharray:none;marker:none;visibility:visible;display:inline;overflow:visible;enable-background:accumulate"
       id="path3790"
       d="m 272.08164,194.41607 c -3.58711,5.71904 -6.32187,11.90432 -9.27739,17.95812 -2.3085,4.82468 -4.68465,9.61652 -7.16397,14.35557 -0.25922,0.49545 -0.95989,0.12887 -0.70067,-0.36658 l 0,0 c 2.47608,-4.73246 4.84859,-9.51793 7.15403,-14.33592 2.96555,-6.07421 5.71058,-12.27977 9.30991,-18.01804 0.28769,-0.47948 0.96577,-0.0726 0.67809,0.40685 z"
       inkscape:connector-curvature="0"
       transform="translate(0,572.36218)" />
    <path
       style="color:#000000;fill:#ffffff;fill-opacity:1;fill-rule:nonzero;stroke:#bd4040;stroke-width:5;stroke-linecap:round;stroke-linejoin:round;stroke-miterlimit:4;stroke-opacity:1;stroke-dasharray:none;marker:none;visibility:visible;display:inline;overflow:visible;enable-background:accumulate"
       id="path3796"
       d="m 256.10721,197.91952 c 2.69849,3.10555 5.51191,6.10329 8.1275,9.2812 2.75812,3.15541 5.26163,6.51594 7.83298,9.82122 1.28644,1.48072 2.55249,2.97841 3.66317,4.59623 0.62216,1.06006 1.26813,2.10381 1.88315,3.16813 0.2797,0.48419 -0.40504,0.87974 -0.68473,0.39556 l 0,0 c -0.60456,-1.04686 -1.24094,-2.07266 -1.85058,-3.11646 -1.10006,-1.60594 -2.36188,-3.08698 -3.63518,-4.55793 -2.56664,-3.29979 -5.06615,-6.65427 -7.81944,-9.80429 -2.61715,-3.18134 -5.43616,-6.17904 -8.13436,-9.28966 -0.3493,-0.43664 0.26819,-0.93063 0.61749,-0.494 z"
       inkscape:connector-curvature="0"
       transform="translate(0,572.36218)" />
  </g>
</svg>
